<svg width="131" height="36" viewBox="0 0 131 36" fill="none" xmlns="http://www.w3.org/2000/svg">
<path d="M50.6718 22.14C49.6451 22.14 48.7251 21.9733 47.9118 21.64C47.0985 21.3067 46.4451 20.8133 45.9518 20.16C45.4718 19.5067 45.2185 18.72 45.1918 17.8H48.8318C48.8851 18.32 49.0651 18.72 49.3718 19C49.6785 19.2667 50.0785 19.4 50.5718 19.4C51.0785 19.4 51.4785 19.2867 51.7718 19.06C52.0651 18.82 52.2118 18.4933 52.2118 18.08C52.2118 17.7333 52.0918 17.4467 51.8518 17.22C51.6251 16.9933 51.3385 16.8067 50.9918 16.66C50.6585 16.5133 50.1785 16.3467 49.5518 16.16C48.6451 15.88 47.9051 15.6 47.3318 15.32C46.7585 15.04 46.2651 14.6267 45.8518 14.08C45.4385 13.5333 45.2318 12.82 45.2318 11.94C45.2318 10.6333 45.7051 9.61333 46.6518 8.88C47.5985 8.13333 48.8318 7.76 50.3518 7.76C51.8985 7.76 53.1451 8.13333 54.0918 8.88C55.0385 9.61333 55.5451 10.64 55.6118 11.96H51.9118C51.8851 11.5067 51.7185 11.1533 51.4118 10.9C51.1051 10.6333 50.7118 10.5 50.2318 10.5C49.8185 10.5 49.4851 10.6133 49.2318 10.84C48.9785 11.0533 48.8518 11.3667 48.8518 11.78C48.8518 12.2333 49.0651 12.5867 49.4918 12.84C49.9185 13.0933 50.5851 13.3667 51.4918 13.66C52.3985 13.9667 53.1318 14.26 53.6918 14.54C54.2651 14.82 54.7585 15.2267 55.1718 15.76C55.5851 16.2933 55.7918 16.98 55.7918 17.82C55.7918 18.62 55.5851 19.3467 55.1718 20C54.7718 20.6533 54.1851 21.1733 53.4118 21.56C52.6385 21.9467 51.7251 22.14 50.6718 22.14ZM68.4165 16.24C68.4165 16.56 68.3965 16.8933 68.3565 17.24H60.6165C60.6698 17.9333 60.8898 18.4667 61.2765 18.84C61.6765 19.2 62.1632 19.38 62.7365 19.38C63.5898 19.38 64.1832 19.02 64.5165 18.3H68.1565C67.9698 19.0333 67.6298 19.6933 67.1365 20.28C66.6565 20.8667 66.0498 21.3267 65.3165 21.66C64.5832 21.9933 63.7632 22.16 62.8565 22.16C61.7632 22.16 60.7898 21.9267 59.9365 21.46C59.0832 20.9933 58.4165 20.3267 57.9365 19.46C57.4565 18.5933 57.2165 17.58 57.2165 16.42C57.2165 15.26 57.4498 14.2467 57.9165 13.38C58.3965 12.5133 59.0632 11.8467 59.9165 11.38C60.7698 10.9133 61.7498 10.68 62.8565 10.68C63.9365 10.68 64.8965 10.9067 65.7365 11.36C66.5765 11.8133 67.2298 12.46 67.6965 13.3C68.1765 14.14 68.4165 15.12 68.4165 16.24ZM64.9165 15.34C64.9165 14.7533 64.7165 14.2867 64.3165 13.94C63.9165 13.5933 63.4165 13.42 62.8165 13.42C62.2432 13.42 61.7565 13.5867 61.3565 13.92C60.9698 14.2533 60.7298 14.7267 60.6365 15.34H64.9165ZM73.6407 12.7C74.0407 12.0867 74.5407 11.6067 75.1407 11.26C75.7407 10.9 76.4074 10.72 77.1407 10.72V14.34H76.2007C75.3474 14.34 74.7074 14.5267 74.2807 14.9C73.854 15.26 73.6407 15.9 73.6407 16.82V22H70.2207V10.84H73.6407V12.7ZM89.2954 16.24C89.2954 16.56 89.2754 16.8933 89.2354 17.24H81.4954C81.5487 17.9333 81.7687 18.4667 82.1554 18.84C82.5554 19.2 83.0421 19.38 83.6154 19.38C84.4687 19.38 85.0621 19.02 85.3954 18.3H89.0354C88.8487 19.0333 88.5087 19.6933 88.0154 20.28C87.5354 20.8667 86.9287 21.3267 86.1954 21.66C85.4621 21.9933 84.6421 22.16 83.7354 22.16C82.6421 22.16 81.6687 21.9267 80.8154 21.46C79.9621 20.9933 79.2954 20.3267 78.8154 19.46C78.3354 18.5933 78.0954 17.58 78.0954 16.42C78.0954 15.26 78.3287 14.2467 78.7954 13.38C79.2754 12.5133 79.9421 11.8467 80.7954 11.38C81.6487 10.9133 82.6287 10.68 83.7354 10.68C84.8154 10.68 85.7754 10.9067 86.6154 11.36C87.4554 11.8133 88.1087 12.46 88.5754 13.3C89.0554 14.14 89.2954 15.12 89.2954 16.24ZM85.7954 15.34C85.7954 14.7533 85.5954 14.2867 85.1954 13.94C84.7954 13.5933 84.2954 13.42 83.6954 13.42C83.1221 13.42 82.6354 13.5867 82.2354 13.92C81.8487 14.2533 81.6087 14.7267 81.5154 15.34H85.7954ZM97.8996 10.72C99.2063 10.72 100.246 11.1467 101.02 12C101.806 12.84 102.2 14 102.2 15.48V22H98.7996V15.94C98.7996 15.1933 98.6063 14.6133 98.2196 14.2C97.833 13.7867 97.313 13.58 96.6596 13.58C96.0063 13.58 95.4863 13.7867 95.0996 14.2C94.713 14.6133 94.5196 15.1933 94.5196 15.94V22H91.0996V10.84H94.5196V12.32C94.8663 11.8267 95.333 11.44 95.9196 11.16C96.5063 10.8667 97.1663 10.72 97.8996 10.72ZM106.296 9.68C105.696 9.68 105.203 9.50667 104.816 9.16C104.443 8.8 104.256 8.36 104.256 7.84C104.256 7.30667 104.443 6.86667 104.816 6.52C105.203 6.16 105.696 5.98 106.296 5.98C106.883 5.98 107.363 6.16 107.736 6.52C108.123 6.86667 108.316 7.30667 108.316 7.84C108.316 8.36 108.123 8.8 107.736 9.16C107.363 9.50667 106.883 9.68 106.296 9.68ZM107.996 10.84V22H104.576V10.84H107.996ZM116.695 19.1V22H114.955C113.715 22 112.748 21.7 112.055 21.1C111.361 20.4867 111.015 19.4933 111.015 18.12V13.68H109.655V10.84H111.015V8.12H114.435V10.84H116.675V13.68H114.435V18.16C114.435 18.4933 114.515 18.7333 114.675 18.88C114.835 19.0267 115.101 19.1 115.475 19.1H116.695ZM130 10.84L123 27.3H119.32L121.88 21.62L117.34 10.84H121.16L123.74 17.82L126.3 10.84H130Z" fill="#FAF9FF"/>
<path d="M52.1973 24.4424V31.4324H51.4973V28.1624H47.7073V31.4324H47.0073V24.4424H47.7073V27.5824H51.4973V24.4424H52.1973ZM56.1844 31.5124C55.6711 31.5124 55.2077 31.3991 54.7944 31.1724C54.3877 30.9391 54.0644 30.6124 53.8244 30.1924C53.5911 29.7658 53.4744 29.2691 53.4744 28.7024C53.4744 28.1358 53.5944 27.6424 53.8344 27.2224C54.0744 26.7958 54.4011 26.4691 54.8144 26.2424C55.2277 26.0091 55.6911 25.8924 56.2044 25.8924C56.7177 25.8924 57.1811 26.0091 57.5944 26.2424C58.0144 26.4691 58.3411 26.7958 58.5744 27.2224C58.8144 27.6424 58.9344 28.1358 58.9344 28.7024C58.9344 29.2624 58.8144 29.7558 58.5744 30.1824C58.3344 30.6091 58.0044 30.9391 57.5844 31.1724C57.1644 31.3991 56.6977 31.5124 56.1844 31.5124ZM56.1844 30.9024C56.5444 30.9024 56.8777 30.8224 57.1844 30.6624C57.4911 30.4958 57.7377 30.2491 57.9244 29.9224C58.1177 29.5891 58.2144 29.1824 58.2144 28.7024C58.2144 28.2224 58.1211 27.8191 57.9344 27.4924C57.7477 27.1591 57.5011 26.9124 57.1944 26.7524C56.8877 26.5858 56.5544 26.5024 56.1944 26.5024C55.8344 26.5024 55.5011 26.5858 55.1944 26.7524C54.8877 26.9124 54.6411 27.1591 54.4544 27.4924C54.2744 27.8191 54.1844 28.2224 54.1844 28.7024C54.1844 29.1824 54.2744 29.5891 54.4544 29.9224C54.6411 30.2491 54.8844 30.4958 55.1844 30.6624C55.4911 30.8224 55.8244 30.9024 56.1844 30.9024ZM62.0904 31.5124C61.4637 31.5124 60.9504 31.3691 60.5504 31.0824C60.1571 30.7891 59.9371 30.3924 59.8904 29.8924H60.6104C60.6437 30.1991 60.7871 30.4491 61.0404 30.6424C61.3004 30.8291 61.6471 30.9224 62.0804 30.9224C62.4604 30.9224 62.7571 30.8324 62.9704 30.6524C63.1904 30.4724 63.3004 30.2491 63.3004 29.9824C63.3004 29.7958 63.2404 29.6424 63.1204 29.5224C63.0004 29.4024 62.8471 29.3091 62.6604 29.2424C62.4804 29.1691 62.2337 29.0924 61.9204 29.0124C61.5137 28.9058 61.1837 28.7991 60.9304 28.6924C60.6771 28.5858 60.4604 28.4291 60.2804 28.2224C60.1071 28.0091 60.0204 27.7258 60.0204 27.3724C60.0204 27.1058 60.1004 26.8591 60.2604 26.6324C60.4204 26.4058 60.6471 26.2258 60.9404 26.0924C61.2337 25.9591 61.5671 25.8924 61.9404 25.8924C62.5271 25.8924 63.0004 26.0424 63.3604 26.3424C63.7204 26.6358 63.9137 27.0424 63.9404 27.5624H63.2404C63.2204 27.2424 63.0937 26.9858 62.8604 26.7924C62.6337 26.5924 62.3204 26.4924 61.9204 26.4924C61.5671 26.4924 61.2804 26.5758 61.0604 26.7424C60.8404 26.9091 60.7304 27.1158 60.7304 27.3624C60.7304 27.5758 60.7937 27.7524 60.9204 27.8924C61.0537 28.0258 61.2171 28.1324 61.4104 28.2124C61.6037 28.2858 61.8637 28.3691 62.1904 28.4624C62.5837 28.5691 62.8971 28.6724 63.1304 28.7724C63.3637 28.8724 63.5637 29.0191 63.7304 29.2124C63.8971 29.4058 63.9837 29.6624 63.9904 29.9824C63.9904 30.2758 63.9104 30.5391 63.7504 30.7724C63.5904 30.9991 63.3671 31.1791 63.0804 31.3124C62.7937 31.4458 62.4637 31.5124 62.0904 31.5124ZM65.9981 27.1724C66.1714 26.8058 66.4447 26.5024 66.8181 26.2624C67.1981 26.0158 67.6481 25.8924 68.1681 25.8924C68.6614 25.8924 69.1047 26.0091 69.4981 26.2424C69.8981 26.4691 70.2081 26.7958 70.4281 27.2224C70.6547 27.6424 70.7681 28.1324 70.7681 28.6924C70.7681 29.2524 70.6547 29.7458 70.4281 30.1724C70.2081 30.5991 69.8981 30.9291 69.4981 31.1624C69.1047 31.3958 68.6614 31.5124 68.1681 31.5124C67.6547 31.5124 67.2081 31.3924 66.8281 31.1524C66.4481 30.9058 66.1714 30.5991 65.9981 30.2324V34.0124H65.3081V25.9724H65.9981V27.1724ZM70.0581 28.6924C70.0581 28.2391 69.9681 27.8491 69.7881 27.5224C69.6147 27.1891 69.3747 26.9358 69.0681 26.7624C68.7614 26.5891 68.4147 26.5024 68.0281 26.5024C67.6547 26.5024 67.3114 26.5924 66.9981 26.7724C66.6914 26.9524 66.4481 27.2091 66.2681 27.5424C66.0881 27.8758 65.9981 28.2624 65.9981 28.7024C65.9981 29.1424 66.0881 29.5291 66.2681 29.8624C66.4481 30.1958 66.6914 30.4524 66.9981 30.6324C67.3114 30.8124 67.6547 30.9024 68.0281 30.9024C68.4147 30.9024 68.7614 30.8158 69.0681 30.6424C69.3747 30.4624 69.6147 30.2058 69.7881 29.8724C69.9681 29.5324 70.0581 29.1391 70.0581 28.6924ZM72.4061 24.9424C72.2661 24.9424 72.1461 24.8924 72.0461 24.7924C71.9461 24.6924 71.8961 24.5691 71.8961 24.4224C71.8961 24.2758 71.9461 24.1558 72.0461 24.0624C72.1461 23.9624 72.2661 23.9124 72.4061 23.9124C72.5461 23.9124 72.6661 23.9624 72.7661 24.0624C72.8661 24.1558 72.9161 24.2758 72.9161 24.4224C72.9161 24.5691 72.8661 24.6924 72.7661 24.7924C72.6661 24.8924 72.5461 24.9424 72.4061 24.9424ZM72.7561 25.9724V31.4324H72.0561V25.9724H72.7561ZM75.2513 26.5624V29.9524C75.2513 30.2858 75.3146 30.5158 75.4413 30.6424C75.5679 30.7691 75.7913 30.8324 76.1113 30.8324H76.7513V31.4324H76.0013C75.5079 31.4324 75.1413 31.3191 74.9013 31.0924C74.6613 30.8591 74.5413 30.4791 74.5413 29.9524V26.5624H73.7813V25.9724H74.5413V24.6024H75.2513V25.9724H76.7513V26.5624H75.2513ZM77.5857 28.6924C77.5857 28.1324 77.6957 27.6424 77.9157 27.2224C78.1424 26.7958 78.4524 26.4691 78.8457 26.2424C79.2457 26.0091 79.6957 25.8924 80.1957 25.8924C80.7157 25.8924 81.1624 26.0124 81.5357 26.2524C81.9157 26.4924 82.189 26.7991 82.3557 27.1724V25.9724H83.0557V31.4324H82.3557V30.2224C82.1824 30.5958 81.9057 30.9058 81.5257 31.1524C81.1524 31.3924 80.7057 31.5124 80.1857 31.5124C79.6924 31.5124 79.2457 31.3958 78.8457 31.1624C78.4524 30.9291 78.1424 30.5991 77.9157 30.1724C77.6957 29.7458 77.5857 29.2524 77.5857 28.6924ZM82.3557 28.7024C82.3557 28.2624 82.2657 27.8758 82.0857 27.5424C81.9057 27.2091 81.659 26.9524 81.3457 26.7724C81.039 26.5924 80.699 26.5024 80.3257 26.5024C79.939 26.5024 79.5924 26.5891 79.2857 26.7624C78.979 26.9358 78.7357 27.1891 78.5557 27.5224C78.3824 27.8491 78.2957 28.2391 78.2957 28.6924C78.2957 29.1391 78.3824 29.5324 78.5557 29.8724C78.7357 30.2058 78.979 30.4624 79.2857 30.6424C79.5924 30.8158 79.939 30.9024 80.3257 30.9024C80.699 30.9024 81.039 30.8124 81.3457 30.6324C81.659 30.4524 81.9057 30.1958 82.0857 29.8624C82.2657 29.5291 82.3557 29.1424 82.3557 28.7024ZM85.3538 24.0324V31.4324H84.6538V24.0324H85.3538ZM88.8189 31.5124C88.1922 31.5124 87.6789 31.3691 87.2789 31.0824C86.8856 30.7891 86.6656 30.3924 86.6189 29.8924H87.3389C87.3722 30.1991 87.5156 30.4491 87.7689 30.6424C88.0289 30.8291 88.3756 30.9224 88.8089 30.9224C89.1889 30.9224 89.4856 30.8324 89.6989 30.6524C89.9189 30.4724 90.0289 30.2491 90.0289 29.9824C90.0289 29.7958 89.9689 29.6424 89.8489 29.5224C89.7289 29.4024 89.5756 29.3091 89.3889 29.2424C89.2089 29.1691 88.9622 29.0924 88.6489 29.0124C88.2422 28.9058 87.9122 28.7991 87.6589 28.6924C87.4056 28.5858 87.1889 28.4291 87.0089 28.2224C86.8356 28.0091 86.7489 27.7258 86.7489 27.3724C86.7489 27.1058 86.8289 26.8591 86.9889 26.6324C87.1489 26.4058 87.3756 26.2258 87.6689 26.0924C87.9622 25.9591 88.2956 25.8924 88.6689 25.8924C89.2556 25.8924 89.7289 26.0424 90.0889 26.3424C90.4489 26.6358 90.6422 27.0424 90.6689 27.5624H89.9689C89.9489 27.2424 89.8222 26.9858 89.5889 26.7924C89.3622 26.5924 89.0489 26.4924 88.6489 26.4924C88.2956 26.4924 88.0089 26.5758 87.7889 26.7424C87.5689 26.9091 87.4589 27.1158 87.4589 27.3624C87.4589 27.5758 87.5222 27.7524 87.6489 27.8924C87.7822 28.0258 87.9456 28.1324 88.1389 28.2124C88.3322 28.2858 88.5922 28.3691 88.9189 28.4624C89.3122 28.5691 89.6256 28.6724 89.8589 28.7724C90.0922 28.8724 90.2922 29.0191 90.4589 29.2124C90.6256 29.4058 90.7122 29.6624 90.7189 29.9824C90.7189 30.2758 90.6389 30.5391 90.4789 30.7724C90.3189 30.9991 90.0956 31.1791 89.8089 31.3124C89.5222 31.4458 89.1922 31.5124 88.8189 31.5124Z" fill="#FAF9FF"/>
<path fill-rule="evenodd" clip-rule="evenodd" d="M25.3207 20.0529C24.952 24.2105 21.3558 27.6953 16.6759 27.6953C11.7337 27.6953 8 23.8087 8 19.3477C8 14.8866 11.7337 11 16.6759 11C21.5343 11 25.2247 14.7557 25.3487 19.1209C24.726 19.2828 24.0976 19.6115 23.4998 20.1313C22.1027 18.9156 20.5365 18.7451 19.2674 19.309C17.9287 19.9044 17 21.2868 17 22.8807C17 23.8434 17.254 24.6704 17.6603 25.3927C17.6889 25.4435 17.7275 25.4883 17.7739 25.5246C17.8203 25.5609 17.8736 25.5879 17.9307 25.6042C17.9879 25.6205 18.0478 25.6256 18.107 25.6194C18.1662 25.6132 18.2236 25.5956 18.2758 25.5679C18.3281 25.5401 18.3742 25.5026 18.4115 25.4575C18.4488 25.4123 18.4767 25.3605 18.4934 25.305C18.5101 25.2494 18.5154 25.1912 18.509 25.1336C18.5026 25.0761 18.4846 25.0203 18.456 24.9695L18.4557 24.9697C18.0916 24.3306 17.9027 23.6113 17.907 22.8807C17.907 21.6171 18.6416 20.5568 19.6447 20.1107C20.6194 19.6775 21.9291 19.7922 23.1735 21.0487C23.2158 21.0914 23.2665 21.1253 23.3226 21.1485C23.3787 21.1717 23.439 21.1836 23.5 21.1836C23.561 21.1836 23.6213 21.1717 23.6774 21.1485C23.7335 21.1253 23.7842 21.0914 23.8265 21.0487C24.3226 20.548 24.8292 20.2285 25.3207 20.0529ZM25.3207 20.0529C25.3414 19.8198 25.3519 19.5845 25.3519 19.3477C25.3519 19.2719 25.3508 19.1963 25.3487 19.1209C26.1824 18.9041 27.006 18.9862 27.7326 19.309C29.0719 19.9044 30 21.2868 30 22.8807C30 24.4476 29.3288 25.6425 28.4479 26.6064C27.7444 27.3767 26.8832 28.0214 26.1222 28.5911C25.9479 28.7216 25.7788 28.8482 25.6181 28.9715C25.3079 29.2089 24.976 29.4616 24.6386 29.6532C24.3018 29.8442 23.9172 30 23.5 30C23.0828 30 22.6982 29.8448 22.3614 29.6532C22.0247 29.4616 21.6921 29.2089 21.3819 28.9715C21.2217 28.8487 21.051 28.7209 20.8749 28.589C20.5578 28.3516 20.2232 28.1011 19.9005 27.843C19.8075 27.7686 19.7487 27.6614 19.737 27.5449C19.7253 27.4284 19.7617 27.3122 19.8382 27.2218C19.9147 27.1313 20.025 27.0742 20.1449 27.0628C20.2647 27.0515 20.3843 27.0869 20.4773 27.1612C20.7959 27.4161 21.1117 27.6528 21.4244 27.8871C21.5984 28.0176 21.7715 28.1473 21.9436 28.2791C22.2617 28.523 22.5453 28.7369 22.8192 28.8921C23.0925 29.0479 23.3126 29.1184 23.5 29.1184C23.6874 29.1184 23.9069 29.0473 24.1808 28.8921C24.4547 28.7369 24.7383 28.523 25.0564 28.2791C25.232 28.1445 25.4108 28.0105 25.5907 27.8757C26.3494 27.3071 27.1273 26.7242 27.77 26.021C28.5488 25.1676 29.093 24.1726 29.093 22.8807C29.093 21.6165 28.3584 20.5568 27.3553 20.1107C26.7692 19.8503 26.062 19.7881 25.3207 20.0529ZM33.3519 19.3477C33.3519 28.3762 25.8858 35.6953 16.6759 35.6953C7.46608 35.6953 0 28.3762 0 19.3477C0 10.3191 7.46608 3 16.6759 3C25.8858 3 33.3519 10.3191 33.3519 19.3477Z" fill="white"/>
</svg>
