<svg width="34" height="33" viewBox="0 0 34 33" fill="none" xmlns="http://www.w3.org/2000/svg">
<path fill-rule="evenodd" clip-rule="evenodd" d="M25.3207 17.0529C24.952 21.2105 21.3558 24.6953 16.6759 24.6953C11.7337 24.6953 8 20.8087 8 16.3477C8 11.8866 11.7337 8 16.6759 8C21.5343 8 25.2247 11.7557 25.3487 16.1209C24.726 16.2828 24.0976 16.6115 23.4998 17.1313C22.1027 15.9156 20.5365 15.7451 19.2674 16.309C17.9287 16.9044 17 18.2868 17 19.8807C17 20.8434 17.254 21.6704 17.6603 22.3927C17.6889 22.4435 17.7275 22.4883 17.7739 22.5246C17.8203 22.5609 17.8736 22.5879 17.9307 22.6042C17.9879 22.6205 18.0478 22.6256 18.107 22.6194C18.1662 22.6132 18.2236 22.5956 18.2758 22.5679C18.3281 22.5401 18.3742 22.5026 18.4115 22.4575C18.4488 22.4123 18.4767 22.3605 18.4934 22.305C18.5101 22.2494 18.5154 22.1912 18.509 22.1336C18.5026 22.0761 18.4846 22.0203 18.456 21.9695L18.4557 21.9697C18.0916 21.3306 17.9027 20.6113 17.907 19.8807C17.907 18.6171 18.6416 17.5568 19.6447 17.1107C20.6194 16.6775 21.9291 16.7922 23.1735 18.0487C23.2158 18.0914 23.2665 18.1253 23.3226 18.1485C23.3787 18.1717 23.439 18.1836 23.5 18.1836C23.561 18.1836 23.6213 18.1717 23.6774 18.1485C23.7335 18.1253 23.7842 18.0914 23.8265 18.0487C24.3226 17.548 24.8292 17.2285 25.3207 17.0529ZM25.3207 17.0529C25.3414 16.8198 25.3519 16.5845 25.3519 16.3477C25.3519 16.2719 25.3508 16.1963 25.3487 16.1209C26.1824 15.9041 27.006 15.9862 27.7326 16.309C29.0719 16.9044 30 18.2868 30 19.8807C30 21.4476 29.3288 22.6425 28.4479 23.6064C27.7444 24.3767 26.8832 25.0214 26.1222 25.5911C25.9479 25.7216 25.7788 25.8482 25.6181 25.9715C25.3079 26.2089 24.976 26.4616 24.6386 26.6532C24.3018 26.8442 23.9172 27 23.5 27C23.0828 27 22.6982 26.8448 22.3614 26.6532C22.0247 26.4616 21.6921 26.2089 21.3819 25.9715C21.2217 25.8487 21.051 25.7209 20.8749 25.589C20.5578 25.3516 20.2232 25.1011 19.9005 24.843C19.8075 24.7686 19.7487 24.6614 19.737 24.5449C19.7253 24.4284 19.7617 24.3122 19.8382 24.2218C19.9147 24.1313 20.025 24.0742 20.1449 24.0628C20.2647 24.0515 20.3843 24.0869 20.4773 24.1612C20.7959 24.4161 21.1117 24.6528 21.4244 24.8871C21.5984 25.0176 21.7715 25.1473 21.9436 25.2791C22.2617 25.523 22.5453 25.7369 22.8192 25.8921C23.0925 26.0479 23.3126 26.1184 23.5 26.1184C23.6874 26.1184 23.9069 26.0473 24.1808 25.8921C24.4547 25.7369 24.7383 25.523 25.0564 25.2791C25.232 25.1445 25.4108 25.0105 25.5907 24.8757C26.3494 24.3071 27.1273 23.7242 27.77 23.021C28.5488 22.1676 29.093 21.1726 29.093 19.8807C29.093 18.6165 28.3584 17.5568 27.3553 17.1107C26.7692 16.8503 26.062 16.7881 25.3207 17.0529ZM33.3519 16.3477C33.3519 25.3762 25.8858 32.6953 16.6759 32.6953C7.46608 32.6953 0 25.3762 0 16.3477C0 7.3191 7.46608 0 16.6759 0C25.8858 0 33.3519 7.3191 33.3519 16.3477Z" fill="white"/>
</svg>
