<svg width="61" height="61" viewBox="0 0 61 61" fill="none" xmlns="http://www.w3.org/2000/svg">
<g filter="url(#filter0_d_178_32)">
<circle cx="28.5" cy="28.5" r="21.5" fill="#5A57FF"/>
<path d="M24.4615 28.0769C23.2375 28.0769 22.0635 27.5907 21.198 26.7251C20.3324 25.8596 19.8462 24.6856 19.8462 23.4615V19.7692C19.8462 19.5244 19.9434 19.2896 20.1165 19.1165C20.2896 18.9434 20.5244 18.8462 20.7692 18.8462H21.6923C21.9371 18.8462 22.1719 18.7489 22.345 18.5758C22.5181 18.4027 22.6154 18.1679 22.6154 17.9231C22.6154 17.6783 22.5181 17.4435 22.345 17.2704C22.1719 17.0973 21.9371 17 21.6923 17H20.7692C20.0348 17 19.3304 17.2918 18.8111 17.8111C18.2918 18.3304 18 19.0348 18 19.7692V23.4615C18.0012 24.5044 18.2555 25.5313 18.741 26.4542C19.2266 27.3771 19.9289 28.1684 20.7877 28.76C21.6136 29.4867 22.2833 30.3736 22.7561 31.3669C23.229 32.3602 23.4951 33.4392 23.5385 34.5385C23.5385 36.2522 24.2192 37.8957 25.431 39.1075C26.6428 40.3192 28.2863 41 30 41C31.7137 41 33.3572 40.3192 34.569 39.1075C35.7808 37.8957 36.4615 36.2522 36.4615 34.5385V33.4862C37.3317 33.2615 38.09 32.7272 38.5944 31.9834C39.0988 31.2396 39.3146 30.3374 39.2013 29.4458C39.0881 28.5543 38.6536 27.7347 37.9793 27.1406C37.305 26.5465 36.4371 26.2188 35.5385 26.2188C34.6398 26.2188 33.7719 26.5465 33.0976 27.1406C32.4233 27.7347 31.9888 28.5543 31.8756 29.4458C31.7623 30.3374 31.9781 31.2396 32.4825 31.9834C32.9869 32.7272 33.7452 33.2615 34.6154 33.4862V34.5385C34.6154 35.7625 34.1291 36.9365 33.2636 37.802C32.398 38.6676 31.2241 39.1538 30 39.1538C28.7759 39.1538 27.602 38.6676 26.7364 37.802C25.8709 36.9365 25.3846 35.7625 25.3846 34.5385C25.4303 33.4378 25.6993 32.358 26.1754 31.3646C26.6514 30.3713 27.3246 29.4851 28.1538 28.76C29.0092 28.1663 29.7079 27.3742 30.1902 26.4514C30.6725 25.5286 30.924 24.5027 30.9231 23.4615V19.7692C30.9231 19.0348 30.6313 18.3304 30.112 17.8111C29.5927 17.2918 28.8883 17 28.1538 17H27.2308C26.986 17 26.7512 17.0973 26.5781 17.2704C26.4049 17.4435 26.3077 17.6783 26.3077 17.9231C26.3077 18.1679 26.4049 18.4027 26.5781 18.5758C26.7512 18.7489 26.986 18.8462 27.2308 18.8462H28.1538C28.3987 18.8462 28.6334 18.9434 28.8066 19.1165C28.9797 19.2896 29.0769 19.5244 29.0769 19.7692V23.4615C29.0769 24.0676 28.9575 24.6678 28.7256 25.2278C28.4937 25.7877 28.1537 26.2965 27.7251 26.7251C27.2965 27.1537 26.7877 27.4937 26.2278 27.7256C25.6678 27.9575 25.0676 28.0769 24.4615 28.0769ZM35.5385 31.7692C35.0488 31.7692 34.5793 31.5747 34.233 31.2285C33.8868 30.8823 33.6923 30.4127 33.6923 29.9231C33.6923 29.4334 33.8868 28.9639 34.233 28.6176C34.5793 28.2714 35.0488 28.0769 35.5385 28.0769C36.0281 28.0769 36.4977 28.2714 36.8439 28.6176C37.1901 28.9639 37.3846 29.4334 37.3846 29.9231C37.3846 30.4127 37.1901 30.8823 36.8439 31.2285C36.4977 31.5747 36.0281 31.7692 35.5385 31.7692Z" fill="#C2C0FF"/>
</g>
<defs>
<filter id="filter0_d_178_32" x="0.2" y="0.2" width="60.6" height="60.6" filterUnits="userSpaceOnUse" color-interpolation-filters="sRGB">
<feFlood flood-opacity="0" result="BackgroundImageFix"/>
<feColorMatrix in="SourceAlpha" type="matrix" values="0 0 0 0 0 0 0 0 0 0 0 0 0 0 0 0 0 0 127 0" result="hardAlpha"/>
<feOffset dx="2" dy="2"/>
<feGaussianBlur stdDeviation="4.4"/>
<feComposite in2="hardAlpha" operator="out"/>
<feColorMatrix type="matrix" values="0 0 0 0 0 0 0 0 0 0 0 0 0 0 0 0 0 0 0.15 0"/>
<feBlend mode="normal" in2="BackgroundImageFix" result="effect1_dropShadow_178_32"/>
<feBlend mode="normal" in="SourceGraphic" in2="effect1_dropShadow_178_32" result="shape"/>
</filter>
</defs>
</svg>
