<svg width="61" height="61" viewBox="0 0 61 61" fill="none" xmlns="http://www.w3.org/2000/svg">
<g filter="url(#filter0_d_178_55)">
<circle cx="28.5" cy="28.5" r="21.5" fill="#5A57FF"/>
<g clip-path="url(#clip0_178_55)">
<path fill-rule="evenodd" clip-rule="evenodd" d="M24.1891 19.3018L24.2247 19.1465C24.2927 18.8579 24.404 18.4335 24.6337 18.0154C24.8679 17.5897 25.2309 17.1581 25.8004 16.874C26.3678 16.5912 27.079 16.4858 27.9584 16.6022C28.929 16.7316 30.8786 17.0526 32.6011 17.9287C34.3334 18.8101 35.9562 20.3262 35.9562 22.8511C35.9562 24.1556 35.4515 25.5552 34.9623 26.4676C34.7274 26.9063 34.4485 27.3256 34.169 27.5514C34.1049 27.6032 34.0137 27.6679 33.9005 27.7132C33.5899 28.734 32.9715 29.6339 32.13 30.29C31.2886 30.9461 30.265 31.3262 29.1992 31.3785C28.1335 31.4307 27.0776 31.1526 26.176 30.582C25.2744 30.0114 24.571 29.1762 24.162 28.1907L24.1464 28.1933L23.9167 27.9144L23.9161 27.9131L23.9148 27.9118L23.9115 27.9073L23.9005 27.8944C23.8452 27.8254 23.7919 27.7549 23.7407 27.6828C23.6013 27.4888 23.4696 27.2893 23.346 27.0849C23.0419 26.5815 22.675 25.8645 22.4401 25.0278C22.2058 24.1911 22.0984 23.2102 22.3443 22.1981C22.5837 21.2133 23.1486 20.244 24.1717 19.3782L24.1891 19.3018ZM25.2762 27.4796C25.5569 28.2867 26.0958 28.9787 26.8095 29.4484C27.5233 29.9182 28.372 30.1395 29.2242 30.0782C30.0765 30.0168 30.8847 29.6761 31.5237 29.1089C32.1628 28.5416 32.597 27.7795 32.759 26.9406L32.8322 26.9652C32.8293 26.9286 32.828 26.8919 32.8283 26.8552C32.8283 25.7843 32.6794 25.0369 32.541 24.571C32.5138 24.4803 32.4838 24.3906 32.451 24.3018L32.4245 24.3031H32.3986C31.9148 24.3135 31.431 24.2766 30.9543 24.1931C29.8433 24.0054 28.3388 23.537 26.5671 22.4518C26.5283 22.5385 26.4895 22.6362 26.4507 22.7449C26.3238 23.1041 26.2197 23.5305 26.1297 23.9808C26.0501 24.3775 25.9848 24.7768 25.9227 25.1508L25.8987 25.2983C25.8321 25.6995 25.7654 26.0936 25.6878 26.3789C25.5519 26.8746 25.4134 27.2266 25.2762 27.4789M24.3703 26.2734C24.0784 25.7716 23.8489 25.236 23.687 24.6784C23.4935 23.9886 23.4224 23.2419 23.6022 22.5036C23.777 21.7853 24.1995 21.0302 25.0685 20.3145C25.2251 20.2084 25.2963 20.066 25.3157 20.0279V20.0272C25.3494 19.9571 25.3767 19.8841 25.3972 19.8091C25.4179 19.7354 25.4406 19.6344 25.4619 19.5438L25.4846 19.4422C25.5461 19.1815 25.6257 18.8974 25.768 18.6379C25.9065 18.3869 26.0961 18.172 26.3782 18.0316C26.6616 17.8899 27.1003 17.7928 27.7875 17.8847C28.7277 18.0096 30.4962 18.3092 32.0142 19.0818C33.5219 19.8486 34.6621 21.0095 34.6621 22.8504C34.6621 23.6981 34.3774 24.6622 34.0344 25.4225C33.9697 24.9269 33.8765 24.5218 33.7808 24.2009C33.7133 23.9717 33.6301 23.7475 33.5316 23.5298C33.4939 23.4495 33.4529 23.3707 33.4087 23.2937L33.3977 23.2762L33.3938 23.2697L33.3919 23.2665L33.3906 23.2645L33.1512 22.8931L32.7228 22.9792L32.7137 22.9811L32.651 22.9895C32.5547 23.0003 32.4579 23.0068 32.3611 23.0089C31.9621 23.0166 31.5634 22.9854 31.1705 22.9158C30.1267 22.7398 28.5931 22.2603 26.7302 21.0198L26.2773 20.7176L25.9026 21.1124C25.5939 21.4372 25.3843 21.8804 25.2309 22.312C25.0743 22.7553 24.9559 23.2503 24.8608 23.7253C24.7819 24.1294 24.7103 24.535 24.646 24.9418L24.6214 25.0867C24.5521 25.508 24.4959 25.8295 24.4389 26.0379C24.4156 26.1238 24.3928 26.2023 24.3703 26.2734Z" fill="#C2C0FF"/>
<path fill-rule="evenodd" clip-rule="evenodd" d="M25.0075 31.9386C24.8703 31.6656 24.7014 31.3284 24.4161 31.3938C20.9193 32.1897 17.2982 34.4875 17.2982 36.9308V40.4445H40.593V36.9308C40.593 35.0064 38.3463 33.172 35.6836 32.0907L35.6804 32.0842L35.6713 32.0667L35.65 32.0771C34.9427 31.7924 34.2063 31.5594 33.4751 31.3938C33.1497 31.3194 32.8132 31.7672 32.6663 32.0473H25.0631L25.0075 31.9386ZM33.7359 32.7928C34.0189 32.8713 34.2995 32.9591 34.5778 33.0561C34.5855 33.2774 34.5687 33.5388 34.5325 33.8054C34.4958 34.0815 34.437 34.3542 34.3565 34.6208H33.4751C33.355 34.6208 33.2373 34.6543 33.1351 34.7175C33.0329 34.7807 32.9504 34.8711 32.8967 34.9786L32.2496 36.2728C32.2046 36.3625 32.1811 36.4616 32.181 36.562V37.8561C32.181 38.0278 32.2492 38.1923 32.3705 38.3137C32.4919 38.4351 32.6565 38.5032 32.8281 38.5032H34.1222V37.2091H33.4751V36.7147L33.875 35.9149H35.6636L36.0635 36.7147V37.2091H35.4164V38.5032H36.7105C36.8821 38.5032 37.0467 38.4351 37.1681 38.3137C37.2894 38.1923 37.3576 38.0278 37.3576 37.8561V36.562C37.3575 36.4616 37.334 36.3625 37.289 36.2728L36.6419 34.9786C36.5882 34.8711 36.5057 34.7807 36.4035 34.7175C36.3013 34.6543 36.1836 34.6208 36.0635 34.6208H35.6972C35.7763 34.2782 35.83 33.9302 35.8577 33.5796C36.4886 33.8779 37.0748 34.2202 37.5828 34.5903C38.8265 35.4976 39.2988 36.3465 39.2988 36.9308V39.1503H18.5924V36.9308C18.5924 36.3465 19.0647 35.4976 20.3084 34.5903C20.9335 34.1342 21.6796 33.7213 22.4794 33.3797C22.5017 33.8953 22.5844 34.4065 22.7259 34.9029L22.7311 34.921C22.3442 35.1657 22.0563 35.5393 21.9182 35.9757C21.78 36.4121 21.8006 36.8833 21.9761 37.3061C22.1517 37.7288 22.471 38.0759 22.8777 38.2861C23.2844 38.4962 23.7522 38.5559 24.1986 38.4546C24.645 38.3533 25.0413 38.0974 25.3173 37.7323C25.5934 37.3672 25.7316 36.9162 25.7074 36.4591C25.6833 36.002 25.4984 35.5681 25.1854 35.2341C24.8723 34.9001 24.4514 34.6874 23.9968 34.6337L23.9683 34.5405C23.8999 34.2995 23.8491 34.0538 23.8162 33.8054C23.78 33.5546 23.7648 33.3011 23.7709 33.0477C23.7731 32.9934 23.7763 32.945 23.7806 32.9028C23.8583 32.8786 23.9359 32.8555 24.0136 32.8335L24.2821 33.3421H33.4473L33.7359 32.7928ZM23.769 37.2194C24.1171 37.2194 24.4161 36.9347 24.4161 36.5626C24.4161 36.1912 24.1171 35.9059 23.769 35.9059C23.4209 35.9059 23.1219 36.1906 23.1219 36.5626C23.1219 36.9341 23.4209 37.2194 23.769 37.2194Z" fill="#C2C0FF"/>
</g>
</g>
<defs>
<filter id="filter0_d_178_55" x="0.2" y="0.2" width="60.6" height="60.6" filterUnits="userSpaceOnUse" color-interpolation-filters="sRGB">
<feFlood flood-opacity="0" result="BackgroundImageFix"/>
<feColorMatrix in="SourceAlpha" type="matrix" values="0 0 0 0 0 0 0 0 0 0 0 0 0 0 0 0 0 0 127 0" result="hardAlpha"/>
<feOffset dx="2" dy="2"/>
<feGaussianBlur stdDeviation="4.4"/>
<feComposite in2="hardAlpha" operator="out"/>
<feColorMatrix type="matrix" values="0 0 0 0 0 0 0 0 0 0 0 0 0 0 0 0 0 0 0.15 0"/>
<feBlend mode="normal" in2="BackgroundImageFix" result="effect1_dropShadow_178_55"/>
<feBlend mode="normal" in="SourceGraphic" in2="effect1_dropShadow_178_55" result="shape"/>
</filter>
<clipPath id="clip0_178_55">
<rect width="23.8889" height="23.8889" fill="white" transform="translate(16.5555 16.5555)"/>
</clipPath>
</defs>
</svg>
