<svg width="61" height="61" viewBox="0 0 61 61" fill="none" xmlns="http://www.w3.org/2000/svg">
<g filter="url(#filter0_d_178_8)">
<circle cx="28.5" cy="28.5" r="21.5" fill="#5A57FF"/>
<path d="M28.6001 26.6C31.2521 26.6 33.4001 24.452 33.4001 21.8C33.4001 19.148 31.2521 17 28.6001 17C25.9481 17 23.8001 19.148 23.8001 21.8C23.8001 24.452 25.9481 26.6 28.6001 26.6ZM28.6001 19.4C29.9201 19.4 31.0001 20.48 31.0001 21.8C31.0001 23.12 29.9201 24.2 28.6001 24.2C27.2801 24.2 26.2001 23.12 26.2001 21.8C26.2001 20.48 27.2801 19.4 28.6001 19.4ZM36.2681 29.672C34.2521 28.64 31.6361 27.8 28.6001 27.8C25.5641 27.8 22.9481 28.64 20.9321 29.672C20.3465 29.9736 19.856 30.4315 19.515 30.995C19.174 31.5584 18.9957 32.2054 19.0001 32.864V41H21.4001V32.864C21.4001 32.408 21.6401 32 22.0001 31.808C23.4521 31.076 25.7561 30.2 28.6001 30.2C29.5121 30.2 30.3641 30.284 31.1561 30.44L29.2961 34.4H25.9001C24.0761 34.4 22.6001 35.876 22.6001 37.7C22.6001 39.524 24.0761 41 25.9001 41H35.8001C37.1201 41 38.2001 39.92 38.2001 38.6V32.864C38.2001 31.52 37.4681 30.284 36.2681 29.672ZM27.3281 38.6H25.9001C25.4081 38.6 25.0001 38.192 25.0001 37.7C25.0001 37.208 25.4081 36.8 25.9001 36.8H28.1681L27.3281 38.6ZM35.8001 38.6H29.9801L33.5081 31.076C34.1561 31.316 34.7201 31.568 35.2001 31.808C35.5601 32 35.8001 32.408 35.8001 32.864V38.6Z" fill="#C2C0FF"/>
</g>
<defs>
<filter id="filter0_d_178_8" x="0.2" y="0.2" width="60.6" height="60.6" filterUnits="userSpaceOnUse" color-interpolation-filters="sRGB">
<feFlood flood-opacity="0" result="BackgroundImageFix"/>
<feColorMatrix in="SourceAlpha" type="matrix" values="0 0 0 0 0 0 0 0 0 0 0 0 0 0 0 0 0 0 127 0" result="hardAlpha"/>
<feOffset dx="2" dy="2"/>
<feGaussianBlur stdDeviation="4.4"/>
<feComposite in2="hardAlpha" operator="out"/>
<feColorMatrix type="matrix" values="0 0 0 0 0 0 0 0 0 0 0 0 0 0 0 0 0 0 0.15 0"/>
<feBlend mode="normal" in2="BackgroundImageFix" result="effect1_dropShadow_178_8"/>
<feBlend mode="normal" in="SourceGraphic" in2="effect1_dropShadow_178_8" result="shape"/>
</filter>
</defs>
</svg>
