<svg width="61" height="61" viewBox="0 0 61 61" fill="none" xmlns="http://www.w3.org/2000/svg">
<g filter="url(#filter0_d_178_44)">
<circle cx="28.5" cy="28.5" r="21.5" fill="#5A57FF"/>
<path d="M32 39.75H26C20.57 39.75 18.25 37.43 18.25 32V26C18.25 20.57 20.57 18.25 26 18.25H32C37.43 18.25 39.75 20.57 39.75 26V32C39.75 37.43 37.43 39.75 32 39.75ZM26 19.75C21.39 19.75 19.75 21.39 19.75 26V32C19.75 36.61 21.39 38.25 26 38.25H32C36.61 38.25 38.25 36.61 38.25 32V26C38.25 21.39 36.61 19.75 32 19.75H26Z" fill="#C2C0FF"/>
<path d="M24.33 32.2381C24.17 32.2381 24.01 32.1881 23.87 32.0781C23.7918 32.0183 23.7262 31.9438 23.6769 31.8586C23.6276 31.7735 23.5955 31.6796 23.5825 31.5821C23.5695 31.4846 23.5758 31.3854 23.6011 31.2904C23.6264 31.1953 23.6702 31.1062 23.73 31.0281L26.11 27.9381C26.4 27.5681 26.81 27.3281 27.28 27.2681C27.74 27.2081 28.21 27.3381 28.58 27.6281L30.41 29.0681C30.48 29.1281 30.55 29.1281 30.6 29.1181C30.64 29.1181 30.71 29.0981 30.77 29.0181L33.08 26.0381C33.1397 25.9597 33.2145 25.894 33.3 25.8449C33.3854 25.7958 33.4798 25.7643 33.5776 25.7522C33.6754 25.7401 33.7747 25.7476 33.8695 25.7744C33.9644 25.8012 34.0529 25.8466 34.13 25.9081C34.46 26.1581 34.52 26.6281 34.26 26.9581L31.95 29.9381C31.66 30.3081 31.25 30.5481 30.78 30.5981C30.31 30.6581 29.85 30.5281 29.48 30.2381L27.65 28.7981C27.6243 28.7756 27.5938 28.7593 27.5609 28.7507C27.5279 28.742 27.4934 28.7411 27.46 28.7481C27.42 28.7481 27.35 28.7681 27.29 28.8481L24.91 31.9381C24.78 32.1381 24.56 32.2381 24.33 32.2381Z" fill="#C2C0FF"/>
</g>
<defs>
<filter id="filter0_d_178_44" x="0.2" y="0.2" width="60.6" height="60.6" filterUnits="userSpaceOnUse" color-interpolation-filters="sRGB">
<feFlood flood-opacity="0" result="BackgroundImageFix"/>
<feColorMatrix in="SourceAlpha" type="matrix" values="0 0 0 0 0 0 0 0 0 0 0 0 0 0 0 0 0 0 127 0" result="hardAlpha"/>
<feOffset dx="2" dy="2"/>
<feGaussianBlur stdDeviation="4.4"/>
<feComposite in2="hardAlpha" operator="out"/>
<feColorMatrix type="matrix" values="0 0 0 0 0 0 0 0 0 0 0 0 0 0 0 0 0 0 0.15 0"/>
<feBlend mode="normal" in2="BackgroundImageFix" result="effect1_dropShadow_178_44"/>
<feBlend mode="normal" in="SourceGraphic" in2="effect1_dropShadow_178_44" result="shape"/>
</filter>
</defs>
</svg>
